<svg width="25" height="24" viewBox="0 0 25 24" fill="none" xmlns="http://www.w3.org/2000/svg">
<g id="ix:about">
<path id="Vector" fill-rule="evenodd" clip-rule="evenodd" d="M12.5 1.99988C6.97717 1.99988 2.5 6.477 2.5 11.9999C2.5 17.5227 6.97717 21.9999 12.5 21.9999C18.0229 21.9999 22.5 17.5227 22.5 11.9999C22.5 6.477 18.0229 1.99988 12.5 1.99988ZM12.5 19.9999C8.08881 19.9999 4.50002 16.4111 4.50002 11.9999C4.50002 7.58864 8.08877 3.99989 12.5 3.99989C16.9113 3.99989 20.5 7.58864 20.5 11.9999C20.5 16.4111 16.9113 19.9999 12.5 19.9999ZM13.7522 7.99988C13.7522 8.72494 13.2243 9.24989 12.5102 9.24989C11.7671 9.24989 11.2522 8.72489 11.2522 7.986C11.2522 7.27585 11.7811 6.74991 12.5102 6.74991C13.2243 6.74991 13.7522 7.27585 13.7522 7.99988ZM11.5022 10.9999H13.5022V16.9999H11.5022V10.9999Z" fill="white"/>
</g>
</svg>
