<svg width="14" height="14" viewBox="0 0 14 14" fill="none" xmlns="http://www.w3.org/2000/svg">
<path d="M11.6668 5.83332C11.6668 8.74591 8.43575 11.7792 7.35075 12.7161C7.24967 12.7921 7.12663 12.8332 7.00016 12.8332C6.8737 12.8332 6.75066 12.7921 6.64958 12.7161C5.56458 11.7792 2.3335 8.74591 2.3335 5.83332C2.3335 4.59565 2.82516 3.40866 3.70033 2.53349C4.5755 1.65832 5.76249 1.16666 7.00016 1.16666C8.23784 1.16666 9.42482 1.65832 10.3 2.53349C11.1752 3.40866 11.6668 4.59565 11.6668 5.83332Z" stroke="#3B82F6" stroke-width="2" stroke-linecap="round" stroke-linejoin="round"/>
<path d="M7 7.58334C7.9665 7.58334 8.75 6.79984 8.75 5.83334C8.75 4.86685 7.9665 4.08334 7 4.08334C6.0335 4.08334 5.25 4.86685 5.25 5.83334C5.25 6.79984 6.0335 7.58334 7 7.58334Z" stroke="#3B82F6" stroke-width="2" stroke-linecap="round" stroke-linejoin="round"/>
</svg>
