<svg width="32" height="32" viewBox="0 0 32 32" fill="none" xmlns="http://www.w3.org/2000/svg">
<path d="M18.9301 17.3L16.9771 3H16.8311C13.4216 3.00579 10.153 4.36115 7.73988 6.7698C5.32673 9.17845 3.96528 12.4445 3.95312 15.854V16L18.9301 17.3Z" fill="#ED6C47"/>
<path d="M17.1226 3H16.9766V16L23.4876 18.6L29.9996 16V15.854C29.9874 12.4447 28.6261 9.17878 26.2132 6.77015C23.8002 4.36153 20.5319 3.00606 17.1226 3Z" fill="#FF8F6B"/>
<path d="M30.0001 16V16.143C29.9874 19.553 28.6257 22.8193 26.2123 25.2284C23.7989 27.6375 20.5301 28.9934 17.1201 29H16.8331C13.4233 28.9929 10.1548 27.6368 7.74156 25.2278C5.32829 22.8188 3.96633 19.5528 3.95312 16.143V16H30.0001Z" fill="#D35230"/>
<path opacity="0.1" d="M17.6281 9.38822V23.2592C17.6263 23.4952 17.555 23.7254 17.423 23.9211C17.291 24.1168 17.1043 24.2691 16.8861 24.3592C16.7434 24.4182 16.5906 24.4491 16.4361 24.4502H7.02714C6.84452 24.2409 6.6707 24.024 6.50614 23.8002C4.84775 21.592 3.95176 18.9048 3.95314 16.1432V15.8572C3.9497 13.3661 4.67895 10.929 6.05014 8.84922C6.1925 8.62595 6.34465 8.40907 6.50614 8.19922H16.4361C16.7511 8.20131 17.0526 8.32715 17.2756 8.5496C17.4987 8.77204 17.6253 9.07325 17.6281 9.38822Z" fill="black"/>
<path opacity="0.2" d="M16.9771 10.0396V23.9106C16.9758 24.0644 16.9449 24.2165 16.8861 24.3586C16.7959 24.5766 16.6435 24.7631 16.4478 24.8949C16.2522 25.0267 16.022 25.0979 15.7861 25.0996H7.62014C7.41414 24.8903 7.21647 24.6736 7.02714 24.4496C6.84452 24.2403 6.6707 24.0234 6.50614 23.7996C4.84775 21.5914 3.95176 18.9042 3.95314 16.1426V15.8566C3.94989 13.3658 4.67914 10.9291 6.05014 8.84961H15.7851C16.1003 8.8517 16.402 8.97768 16.625 9.20034C16.848 9.423 16.9745 9.72447 16.9771 10.0396Z" fill="black"/>
<path opacity="0.2" d="M16.9771 10.0396V22.6106C16.9743 22.9256 16.8476 23.2268 16.6246 23.4492C16.4016 23.6717 16.1001 23.7975 15.7851 23.7996H6.50614C4.84775 21.5914 3.95176 18.9042 3.95314 16.1426V15.8566C3.94989 13.3658 4.67914 10.9291 6.05014 8.84961H15.7851C16.1003 8.8517 16.402 8.97768 16.625 9.20034C16.848 9.423 16.9745 9.72447 16.9771 10.0396Z" fill="black"/>
<path opacity="0.2" d="M16.3261 10.0396V22.6106C16.3233 22.9256 16.1967 23.2268 15.9736 23.4492C15.7506 23.6717 15.4491 23.7975 15.1341 23.7996H6.50614C4.84775 21.5914 3.95176 18.9042 3.95314 16.1426V15.8566C3.94989 13.3658 4.67914 10.9291 6.05014 8.84961H15.1341C15.4493 8.8517 15.751 8.97768 15.974 9.20034C16.197 9.423 16.3235 9.72447 16.3261 10.0396Z" fill="black"/>
<path d="M3.194 8.84962H15.132C15.4482 8.84935 15.7516 8.97465 15.9755 9.19798C16.1994 9.4213 16.3255 9.72439 16.326 10.0406V21.9586C16.3255 22.2748 16.1994 22.5779 15.9755 22.8013C15.7516 23.0246 15.4482 23.1499 15.132 23.1496H3.194C3.03731 23.1501 2.88205 23.1197 2.73715 23.0601C2.59224 23.0005 2.46054 22.9128 2.3496 22.8021C2.23866 22.6915 2.15067 22.56 2.09068 22.4152C2.03068 22.2705 1.99987 22.1153 2 21.9586V10.0406C1.99987 9.88392 2.03068 9.72874 2.09068 9.58399C2.15067 9.43923 2.23866 9.30775 2.3496 9.19709C2.46054 9.08643 2.59224 8.99877 2.73715 8.93914C2.88205 8.87951 3.03731 8.84909 3.194 8.84962Z" fill="url(#paint0_linear_248_6171)"/>
<path d="M9.29263 12.0286C10.0696 11.9775 10.8397 12.2028 11.4666 12.6646C11.7242 12.8939 11.9261 13.1789 12.0571 13.4978C12.1881 13.8168 12.2447 14.1615 12.2226 14.5056C12.2311 14.9903 12.1017 15.4675 11.8496 15.8816C11.5939 16.2886 11.2262 16.6132 10.7906 16.8166C10.2927 17.0478 9.74849 17.162 9.19963 17.1506H7.68663V19.9506H6.14062V12.0286H9.29263ZM7.68563 15.9406H9.01663C9.43858 15.9706 9.857 15.8458 10.1936 15.5896C10.3312 15.4584 10.4383 15.2986 10.5074 15.1215C10.5765 14.9444 10.606 14.7543 10.5936 14.5646C10.5936 13.6919 10.0853 13.2553 9.06863 13.2546H7.68563V15.9406Z" fill="white"/>
<defs>
<linearGradient id="paint0_linear_248_6171" x1="4.494" y1="7.91362" x2="13.832" y2="24.0856" gradientUnits="userSpaceOnUse">
<stop stop-color="#CA4C28"/>
<stop offset="0.5" stop-color="#C5401E"/>
<stop offset="1" stop-color="#B62F14"/>
</linearGradient>
</defs>
</svg>
