<svg width="32" height="32" viewBox="0 0 32 32" fill="none" xmlns="http://www.w3.org/2000/svg">
<path d="M28.8057 3.00001H9.70472C9.54811 2.99961 9.39296 3.03013 9.24817 3.08982C9.10338 3.14951 8.9718 3.23719 8.86097 3.34784C8.75014 3.45849 8.66223 3.58992 8.6023 3.73461C8.54237 3.8793 8.51159 4.0344 8.51172 4.19101V9.50001L19.5807 12.75L29.9997 9.50001V4.19101C29.9999 4.03431 29.969 3.87913 29.909 3.73438C29.849 3.58963 29.7611 3.45815 29.6501 3.34749C29.5392 3.23682 29.4075 3.14916 29.2626 3.08953C29.1177 3.0299 28.9624 2.99948 28.8057 3.00001Z" fill="#41A5EE"/>
<path d="M29.9997 9.5H8.51172V16L19.5807 17.95L29.9997 16V9.5Z" fill="#2B7CD3"/>
<path d="M8.51172 16V22.5L18.9297 23.8L29.9997 22.5V16H8.51172Z" fill="#185ABD"/>
<path d="M9.70472 29H28.8047C28.9615 29.0007 29.1169 28.9703 29.2619 28.9108C29.4069 28.8512 29.5387 28.7636 29.6498 28.6529C29.7608 28.5422 29.8489 28.4107 29.9089 28.2659C29.969 28.121 29.9999 27.9658 29.9997 27.809V22.5H8.51172V27.809C8.51159 27.9656 8.54237 28.1207 8.6023 28.2654C8.66223 28.4101 8.75014 28.5415 8.86097 28.6522C8.9718 28.7628 9.10338 28.8505 9.24817 28.9102C9.39296 28.9699 9.54811 29.0004 9.70472 29Z" fill="#103F91"/>
<path opacity="0.1" d="M16.4337 8.19922H8.51172V24.4492H16.4337C16.7494 24.4476 17.0517 24.3218 17.2752 24.0988C17.4987 23.8759 17.6254 23.5739 17.6277 23.2582V9.39022C17.6254 9.07456 17.4987 8.77254 17.2752 8.54961C17.0517 8.32668 16.7494 8.20079 16.4337 8.19922Z" fill="black"/>
<path opacity="0.2" d="M15.7827 8.84961H8.51172V25.0996H15.7827C16.0984 25.098 16.4007 24.9721 16.6242 24.7492C16.8477 24.5263 16.9744 24.2243 16.9767 23.9086V10.0406C16.9744 9.72495 16.8477 9.42293 16.6242 9.2C16.4007 8.97707 16.0984 8.85118 15.7827 8.84961Z" fill="black"/>
<path opacity="0.2" d="M15.7827 8.84961H8.51172V23.7996H15.7827C16.0984 23.798 16.4007 23.6722 16.6242 23.4492C16.8477 23.2263 16.9744 22.9243 16.9767 22.6086V10.0406C16.9744 9.72495 16.8477 9.42293 16.6242 9.2C16.4007 8.97707 16.0984 8.85118 15.7827 8.84961Z" fill="black"/>
<path opacity="0.2" d="M15.1317 8.84961H8.51172V23.7996H15.1317C15.4474 23.798 15.7497 23.6722 15.9732 23.4492C16.1967 23.2263 16.3234 22.9243 16.3257 22.6086V10.0406C16.3234 9.72495 16.1967 9.42293 15.9732 9.2C15.7497 8.97707 15.4474 8.85118 15.1317 8.84961Z" fill="black"/>
<path d="M3.194 8.84962H15.132C15.4482 8.84935 15.7516 8.97465 15.9755 9.19798C16.1994 9.4213 16.3255 9.72439 16.326 10.0406V21.9586C16.3255 22.2748 16.1994 22.5779 15.9755 22.8013C15.7516 23.0246 15.4482 23.1499 15.132 23.1496H3.194C3.03731 23.1501 2.88205 23.1197 2.73715 23.0601C2.59224 23.0005 2.46054 22.9128 2.3496 22.8021C2.23866 22.6915 2.15067 22.56 2.09068 22.4152C2.03068 22.2705 1.99987 22.1153 2 21.9586V10.0406C1.99987 9.88392 2.03068 9.72874 2.09068 9.58399C2.15067 9.43923 2.23866 9.30775 2.3496 9.19709C2.46054 9.08643 2.59224 8.99877 2.73715 8.93914C2.88205 8.87951 3.03731 8.84909 3.194 8.84962Z" fill="url(#paint0_linear_248_6143)"/>
<path d="M6.90043 17.9871C6.92376 18.1711 6.9391 18.3315 6.94643 18.4681H6.97443C6.98443 18.3381 7.0061 18.1815 7.03943 17.9981C7.08943 17.7231 7.10143 17.6601 7.12843 17.5331L8.38343 12.1261H10.0074L11.3074 17.4521C11.3825 17.7817 11.4366 18.1157 11.4694 18.4521H11.4914C11.5164 18.1247 11.5615 17.7991 11.6264 17.4771L12.6654 12.1191H14.1424L12.3184 19.8671H10.5914L9.35443 14.7411C9.31843 14.5931 9.27776 14.4005 9.23243 14.1631C9.1871 13.9258 9.1591 13.7525 9.14843 13.6431H9.12743C9.11343 13.7691 9.08543 13.9561 9.04343 14.2041C9.00143 14.4521 8.9681 14.6361 8.94343 14.7561L7.78043 19.8701H6.02443L4.19043 12.1261H5.69043L6.82143 17.5441C6.8544 17.6905 6.88076 17.8384 6.90043 17.9871Z" fill="white"/>
<defs>
<linearGradient id="paint0_linear_248_6143" x1="4.494" y1="7.91362" x2="13.832" y2="24.0856" gradientUnits="userSpaceOnUse">
<stop stop-color="#2368C4"/>
<stop offset="0.5" stop-color="#1A5DBE"/>
<stop offset="1" stop-color="#1146AC"/>
</linearGradient>
</defs>
</svg>
