<svg width="29" height="21" viewBox="0 0 29 21" fill="none" xmlns="http://www.w3.org/2000/svg">
<path d="M3.86719 16.2563C6.55518 16.2563 8.15186 14.1543 8.15186 10.5947C8.15186 9.25439 7.89551 8.12646 7.40479 7.25488C6.69434 5.8999 5.47119 5.16748 3.92578 5.16748C1.62598 5.16748 0 6.71289 0 8.88086C0 10.917 1.46484 12.3965 3.479 12.3965C4.7168 12.3965 5.72021 11.8179 6.21826 10.8145H6.24023C6.24023 10.8145 6.26953 10.8145 6.27686 10.8145C6.2915 10.8145 6.34277 10.8145 6.34277 10.8145C6.34277 13.2314 5.42725 14.6743 3.88184 14.6743C2.97363 14.6743 2.27051 14.1763 2.02881 13.3779H0.146484C0.461426 15.1138 1.93359 16.2563 3.86719 16.2563ZM3.93311 10.895C2.71729 10.895 1.85303 10.0308 1.85303 8.82227C1.85303 7.64307 2.76123 6.74219 3.94043 6.74219C5.11963 6.74219 6.02783 7.65771 6.02783 8.85156C6.02783 10.0308 5.1416 10.895 3.93311 10.895Z" fill="white"/>
<path d="M11.243 16.1538C11.9388 16.1538 12.4148 15.6558 12.4148 14.9966C12.4148 14.3301 11.9388 13.8394 11.243 13.8394C10.5545 13.8394 10.0711 14.3301 10.0711 14.9966C10.0711 15.6558 10.5545 16.1538 11.243 16.1538ZM11.243 10.6606C11.9388 10.6606 12.4148 10.1699 12.4148 9.51074C12.4148 8.84424 11.9388 8.35352 11.243 8.35352C10.5545 8.35352 10.0711 8.84424 10.0711 9.51074C10.0711 10.1699 10.5545 10.6606 11.243 10.6606Z" fill="white"/>
<path d="M19.2706 16H21.0797V14.0298H22.5079V12.4331H21.0797V5.43115H18.4137C16.546 8.24365 15.0592 10.5947 14.107 12.3452V14.0298H19.2706V16ZM15.8575 12.3672C17.088 10.1992 18.1866 8.46338 19.1974 6.96924H19.2999V12.4771H15.8575V12.3672Z" fill="white"/>
<path d="M26.5365 16H28.4262V5.43115H26.5438L23.7826 7.36475V9.18115L26.412 7.33545H26.5365V16Z" fill="white"/>
</svg>
