<svg width="67" height="12" viewBox="0 0 67 12" fill="none" xmlns="http://www.w3.org/2000/svg">
<path opacity="0.35" d="M45 0.502747H61.666C62.8626 0.502747 63.833 1.47312 63.833 2.66974V8.66974C63.8328 9.86621 62.8625 10.8358 61.666 10.8358H45C43.8035 10.8358 42.8332 9.86621 42.833 8.66974V2.66974L42.8438 2.44806C42.9546 1.3554 43.8781 0.502747 45 0.502747Z" stroke="white"/>
<path opacity="0.4" d="M65.333 3.6694V7.6694C66.1377 7.33063 66.661 6.54254 66.661 5.6694C66.661 4.79627 66.1377 4.00818 65.333 3.6694Z" fill="white"/>
<path d="M44.333 3.33608C44.333 2.5997 44.93 2.00275 45.6663 2.00275H60.9997C61.7361 2.00275 62.333 2.5997 62.333 3.33608V8.00275C62.333 8.73913 61.7361 9.33608 60.9997 9.33608H45.6663C44.93 9.33608 44.333 8.73913 44.333 8.00275V3.33608Z" fill="white"/>
<path d="M27.4536 8.4006C28.7292 7.32172 30.598 7.32172 31.8735 8.4006C31.9375 8.45862 31.9743 8.5408 31.9761 8.62717C31.9778 8.71357 31.944 8.79709 31.8823 8.85764L29.8853 10.8733C29.8267 10.9324 29.7468 10.966 29.6636 10.966C29.5803 10.966 29.5004 10.9324 29.4419 10.8733L27.4438 8.85764C27.3823 8.79707 27.3484 8.71352 27.3501 8.62717C27.3519 8.54076 27.3895 8.45858 27.4536 8.4006ZM24.7886 5.71115C27.5367 3.15501 31.7924 3.15509 34.5405 5.71115C34.6025 5.77104 34.6382 5.85349 34.6392 5.93967C34.64 6.02589 34.6062 6.10895 34.5454 6.17014L33.3911 7.33713C33.2722 7.45622 33.0796 7.45884 32.9575 7.34299C32.0551 6.52579 30.881 6.0734 29.6636 6.07346C28.4469 6.07396 27.2735 6.52632 26.3716 7.34299C26.2496 7.45863 26.0579 7.45592 25.939 7.33713L24.7837 6.17014C24.723 6.10906 24.6891 6.02579 24.6899 5.93967C24.6908 5.85349 24.7266 5.77102 24.7886 5.71115ZM22.1235 3.02951C26.3386 -1.00975 32.9886 -1.00994 37.2036 3.02951C37.2645 3.08948 37.2988 3.17157 37.2993 3.25705C37.2998 3.34263 37.2659 3.42484 37.2056 3.48557L36.0503 4.65256C35.9312 4.77228 35.7376 4.77336 35.6167 4.65549C34.0108 3.12872 31.8794 2.27767 29.6636 2.27756C27.4475 2.27755 25.3156 3.12859 23.7095 4.65549C23.5887 4.77339 23.3959 4.77218 23.2769 4.65256L22.1206 3.48557C22.0603 3.4248 22.0263 3.34263 22.0269 3.25705C22.0274 3.17149 22.0625 3.08947 22.1235 3.02951Z" fill="white"/>
<path d="M2 7.00299C2.55215 7.00315 3 7.4508 3 8.00299V10.003C2.99982 10.555 2.55204 11.0028 2 11.003H1C0.447824 11.003 0.00017602 10.5551 0 10.003V8.00299C0 7.45071 0.447715 7.00299 1 7.00299H2ZM6.66602 5.00299C7.2183 5.00299 7.66602 5.45071 7.66602 6.00299V10.003C7.66584 10.5551 7.21819 11.003 6.66602 11.003H5.66602C5.114 11.0028 4.66619 10.555 4.66602 10.003V6.00299C4.66602 5.45082 5.11389 5.00318 5.66602 5.00299H6.66602ZM11.333 2.66901C11.8852 2.66901 12.3328 3.11687 12.333 3.66901V10.003C12.3328 10.5551 11.8852 11.003 11.333 11.003H10.333C9.78084 11.003 9.33318 10.5551 9.33301 10.003V3.66901C9.33318 3.11688 9.78084 2.66902 10.333 2.66901H11.333ZM16 0.335999C16.5521 0.336159 17 0.783813 17 1.336V10.003C16.9998 10.555 16.552 11.0028 16 11.003H15C14.4478 11.003 14.0002 10.5551 14 10.003V1.336C14 0.783714 14.4477 0.335999 15 0.335999H16Z" fill="white"/>
</svg>
